<?xml version="1.0" encoding="UTF-8"?>
<svg width="256px" height="256px" viewBox="0 0 5464 5463" version="1.1" xmlns="http://www.w3.org/2000/svg" xmlns:xlink="http://www.w3.org/1999/xlink">
    <title>MONRI logo_member of Payten 2023_rgb(1)</title>
    <g id="Page-1" stroke="none" stroke-width="1" fill="none" fill-rule="evenodd">
        <g id="MONRI-logo_member-of-Payten-2023_rgb(1)">
            <rect id="Rectangle" fill="#FEFEFE" x="0.85" y="0" width="5462.41" height="5462.41"></rect>
            <g id="_1930526902416" transform="translate(641.000000, 1696.000000)">
                <path d="M255.69,1965.16 L319.58,1965.16 L303.71,1676.16 L218.38,1676.16 L187.51,1772.21 C178.08,1804.37 168.21,1842.53 160.07,1875.98 L158.78,1875.98 C152.35,1842.11 143.35,1806.09 134.34,1772.64 L106.04,1676.16 L19,1676.16 L0.56,1965.16 L61.02,1965.16 L66.17,1855.39 C68.32,1819.37 69.6,1774.78 71.32,1735.76 L72.18,1735.76 C79.04,1773.49 88.9,1814.66 98.34,1848.53 L129.21,1960.44 L180.24,1960.44 L215.4,1847.67 C226.55,1813.8 238.55,1772.63 247.56,1735.76 L248.85,1735.76 C248.85,1777.78 250.14,1819.8 251.42,1854.53 L255.71,1965.16 L255.69,1965.16 Z M541.69,1789.79 L435.35,1789.79 L435.35,1729.76 L548.12,1729.76 L548.12,1676.16 L369.74,1676.16 L369.74,1965.16 L554.12,1965.16 L554.12,1911.56 L435.34,1911.56 L435.34,1842.95 L541.68,1842.95 L541.68,1789.78 L541.69,1789.79 Z M847.42,1965.16 L911.31,1965.16 L895.44,1676.16 L810.11,1676.16 L779.24,1772.21 C769.81,1804.37 759.94,1842.53 751.8,1875.98 L750.51,1875.98 C744.08,1842.11 735.08,1806.09 726.07,1772.64 L697.77,1676.16 L610.73,1676.16 L592.29,1965.16 L652.75,1965.16 L657.9,1855.39 C660.05,1819.37 661.33,1774.78 663.05,1735.76 L663.91,1735.76 C670.77,1773.49 680.63,1814.66 690.07,1848.53 L720.94,1960.44 L771.97,1960.44 L807.13,1847.67 C818.28,1813.8 830.28,1772.63 839.29,1735.76 L840.57,1735.76 C840.57,1777.78 841.86,1819.8 843.14,1854.53 L847.43,1965.16 L847.42,1965.16 Z M961.48,1963.87 C976.06,1966.02 1000.07,1968.16 1032.23,1968.16 C1089.69,1968.16 1124.85,1958.73 1145.86,1942.01 C1163.87,1927.43 1175.88,1906.85 1175.88,1880.69 C1175.88,1843.39 1151.44,1818.52 1118.42,1809.51 L1118.42,1808.65 C1151.01,1796.64 1166.02,1772.63 1166.02,1746.9 C1166.02,1720.75 1151.44,1701.02 1131.29,1690.3 C1110.28,1677.86 1085.84,1674 1045.96,1674 C1013.37,1674 978.64,1676.57 961.49,1680 L961.49,1963.86 L961.48,1963.87 Z M1026.23,1723.32 C1031.8,1722.46 1039.95,1721.6 1054.1,1721.6 C1083.69,1721.6 1100.41,1733.18 1100.41,1755.05 C1100.41,1776.49 1081.97,1790.64 1047.67,1790.64 L1026.23,1790.64 L1026.23,1723.32 Z M1026.23,1837.38 L1048.53,1837.38 C1081.12,1837.38 1107.27,1848.96 1107.27,1878.12 C1107.27,1908.56 1081.11,1919.71 1051.53,1919.71 C1040.38,1919.71 1032.66,1919.71 1026.23,1918.85 L1026.23,1837.38 Z M1392.42,1789.79 L1286.08,1789.79 L1286.08,1729.76 L1398.85,1729.76 L1398.85,1676.16 L1220.47,1676.16 L1220.47,1965.16 L1404.85,1965.16 L1404.85,1911.56 L1286.07,1911.56 L1286.07,1842.95 L1392.41,1842.95 L1392.41,1789.78 L1392.42,1789.79 Z M1449.45,1965.16 L1514.2,1965.16 L1514.2,1851.53 L1533.92,1851.53 C1560.51,1851.96 1572.94,1861.82 1580.66,1897.84 C1589.23,1933.43 1596.1,1957.01 1600.81,1965.16 L1667.7,1965.16 C1662.13,1954.01 1653.12,1916.28 1644.12,1883.69 C1636.83,1857.1 1625.68,1837.81 1605.53,1829.66 L1605.53,1828.38 C1630.4,1819.38 1656.55,1794.08 1656.55,1757.2 C1656.55,1730.62 1647.12,1710.46 1629.97,1696.74 C1609.39,1680.45 1579.37,1674.02 1536.49,1674.02 C1501.76,1674.02 1470.45,1676.59 1449.44,1680.02 L1449.44,1965.17 L1449.45,1965.16 Z M1514.2,1724.61 C1518.92,1723.75 1527.92,1722.46 1543.79,1722.46 C1573.81,1722.89 1591.81,1736.18 1591.81,1762.77 C1591.81,1788.07 1572.51,1804.36 1539.93,1804.36 L1514.2,1804.36 L1514.2,1724.6 L1514.2,1724.61 Z M1917.68,1671.44 C1832.36,1671.44 1777.04,1736.18 1777.04,1822.8 C1777.04,1905.13 1827.21,1969.87 1912.96,1969.87 C1997.43,1969.87 2054.89,1912.41 2054.89,1817.65 C2054.89,1737.89 2006.43,1671.43 1917.67,1671.43 L1917.68,1671.44 Z M1915.97,1723.32 C1960.99,1723.32 1985.86,1767.91 1985.86,1819.8 C1985.86,1875.97 1960.56,1918 1916.4,1918 C1872.67,1918 1846.08,1878.12 1846.08,1821.52 C1846.08,1765.35 1871.81,1723.33 1915.97,1723.33 L1915.97,1723.32 Z M2097.78,1965.16 L2163.39,1965.16 L2163.39,1848.96 L2267.16,1848.96 L2267.16,1795.79 L2163.39,1795.79 L2163.39,1729.76 L2274.45,1729.76 L2274.45,1676.16 L2097.79,1676.16 L2097.79,1965.16 L2097.78,1965.16 Z" id="Shape" fill="#000000" fill-rule="nonzero"></path>
                <g id="Group" fill="#000000" fill-rule="nonzero">
                    <polygon id="Path" points="3979.8 1379.38 4145.05 1379.38 4145.05 419.14 3979.8 419.14"></polygon>
                    <path d="M3979.8,209.79 L4145.05,209.79 C4168.11,188.67 4181.55,157.95 4181.55,121.44 C4181.55,54.25 4129.68,0.46 4062.43,0.46 C3995.17,0.46 3943.3,54.25 3943.3,121.44 C3943.3,157.95 3956.75,188.67 3979.8,209.79 Z" id="Path"></path>
                    <path d="M3386.09,1379.38 L3551.34,1379.38 L3551.34,726.42 C3593.63,626.56 3687.78,574.69 3791.53,574.69 C3826.11,574.69 3856.84,578.53 3883.76,586.21 L3883.76,415.28 C3862.63,411.44 3839.56,409.52 3816.5,409.52 C3708.9,409.52 3616.67,449.87 3551.33,532.45 L3551.33,419.14 L3386.08,419.14 L3386.08,1379.38 L3386.09,1379.38 Z" id="Path"></path>
                    <path d="M2371.61,1379.38 L2536.84,1379.38 L2536.84,759.06 C2571.44,634.24 2663.67,559.34 2798.15,559.34 C2948.03,559.34 3040.26,663.04 3040.26,803.25 L3040.26,1379.39 L3205.49,1379.39 L3205.49,793.65 C3205.49,555.5 3051.79,403.78 2834.65,403.78 C2723.22,403.78 2609.85,436.45 2536.84,528.63 L2536.84,419.17 L2371.61,419.17 L2371.61,1379.41 L2371.61,1379.38 Z" id="Path"></path>
                    <path d="M1739.45,1394.74 C2027.67,1394.74 2237.1,1175.81 2237.1,899.26 C2237.1,622.71 2027.67,403.76 1739.45,403.76 C1579.97,403.76 1443.56,470.98 1355.17,576.61 C1295.6,467.15 1188,403.76 1047.75,403.76 C949.76,403.76 817.16,436.43 726.85,561.25 C667.28,461.39 563.53,403.76 436.72,403.76 C340.65,403.76 236.9,436.43 165.8,524.77 L165.8,419.14 L0.55,419.14 L0.55,1379.38 L165.8,1379.38 L165.8,739.86 C204.24,626.55 288.76,559.33 400.23,559.33 C538.56,559.33 621.19,663.03 621.19,803.24 L621.19,1379.38 L786.44,1379.38 L786.44,793.64 C786.44,782.1 786.44,768.66 784.52,755.22 C821.02,632.32 901.72,559.34 1020.84,559.34 C1159.2,559.34 1239.9,663.04 1239.9,803.25 L1239.9,899.27 C1239.9,1175.83 1449.33,1394.75 1739.46,1394.75 L1739.45,1394.74 Z M1739.45,1239.17 C1543.47,1239.17 1410.88,1089.39 1410.88,899.26 C1410.88,709.13 1543.47,559.33 1739.45,559.33 C1935.44,559.33 2066.08,709.13 2066.08,899.26 C2066.08,1089.39 1935.43,1239.17 1739.45,1239.17 Z" id="Shape"></path>
                </g>
                <path d="M2528.35,1835.53 L2514.85,1965.33 L2431.34,1965.33 L2470.99,1584.03 L2615.22,1584.03 C2664.71,1584.03 2701.14,1594.13 2724.7,1614.25 C2748.26,1634.37 2757.97,1663.91 2753.94,1702.69 C2749.73,1743.19 2732.22,1775.41 2701.37,1799.5 C2670.55,1823.51 2632.33,1835.52 2586.82,1835.52 L2528.35,1835.52 L2528.35,1835.53 Z M2547.76,1643.97 L2534.13,1775.07 L2556.41,1775.07 C2598.3,1775.07 2626.53,1769.29 2641.39,1757.72 C2656.15,1746.15 2664.72,1728.44 2667.22,1704.43 C2669.27,1684.74 2664.35,1669.71 2652.3,1659.43 C2640.32,1649.15 2615.04,1643.97 2576.35,1643.97 L2547.77,1643.97 L2547.76,1643.97 Z" id="Shape" fill="#000000" fill-rule="nonzero"></path>
                <path d="M2996.31,1965.33 L2919.1,1965.33 L2923.07,1927.16 C2897.2,1947.54 2876.61,1960.33 2861.31,1965.42 C2846,1970.61 2830.01,1973.19 2813.26,1973.19 C2787.7,1973.19 2767.23,1964.9 2752.12,1948.23 C2737.01,1931.65 2730.77,1910.23 2733.48,1884.14 C2736.92,1851.06 2751.96,1826.02 2778.61,1808.92 C2805.26,1791.9 2858.87,1781.28 2939.45,1777.05 L2940.27,1769.19 C2942.18,1750.88 2937.26,1737.5 2925.42,1729.29 C2913.68,1720.99 2893.2,1716.85 2864.01,1716.85 C2844.06,1716.85 2814.77,1724.45 2776.14,1739.65 L2773.29,1739.65 L2779.68,1678.16 C2819.79,1668.66 2855.77,1664 2887.47,1664 C2936.87,1664 2971.8,1671.94 2992.07,1687.92 C3012.44,1703.81 3020.86,1729.2 3017.25,1763.92 L2996.31,1965.32 L2996.31,1965.33 Z M2926.51,1893.99 L2934.2,1820.06 C2882.81,1824.29 2850.26,1830.85 2836.55,1839.66 C2822.76,1848.56 2815.09,1860.82 2813.46,1876.54 C2811.74,1893.21 2815.01,1904.87 2823.22,1911.43 C2831.52,1917.99 2845.17,1921.28 2864.25,1921.28 C2884.29,1921.28 2905.09,1912.21 2926.51,1893.98 L2926.51,1893.99 Z" id="Shape" fill="#000000" fill-rule="nonzero"></path>
                <path d="M3513.06,1963.52 C3491.8,1968.61 3469.35,1971.12 3445.68,1971.12 C3410.79,1971.12 3386,1963.69 3371.4,1948.75 C3356.71,1933.81 3351.11,1909.63 3354.58,1876.29 L3370.45,1723.68 L3332.02,1723.68 L3337.36,1672.29 L3376.05,1672.29 L3384.6,1590.07 L3462.07,1590.07 L3453.52,1672.29 L3543.34,1672.29 L3537.99,1723.68 L3448.17,1723.68 L3435.61,1844.42 C3432.39,1875.42 3434.26,1895.63 3441.13,1905.13 C3448.1,1914.55 3460.99,1919.3 3479.65,1919.3 C3491.65,1919.3 3503.87,1916.36 3516.24,1910.4 L3518.57,1910.4 L3513.05,1963.51 L3513.06,1963.52 Z" id="Path" fill="#000000" fill-rule="nonzero"></path>
                <path d="M4119.17,1965.33 L4040.92,1965.33 L4056.1,1819.37 C4060.35,1778.52 4058.5,1753.13 4050.54,1743.28 C4042.5,1733.43 4028.42,1728.51 4008.12,1728.51 C3991.28,1728.51 3970.2,1736.03 3944.81,1751.05 L3922.53,1965.32 L3844.88,1965.32 L3875.36,1672.29 L3953,1672.29 L3948.74,1713.31 C3975.17,1693.45 3995.97,1680.23 4011.23,1673.84 C4026.49,1667.45 4042.03,1664.25 4057.83,1664.25 C4119.58,1664.25 4146.73,1700.44 4139.21,1772.81 L4119.19,1965.32 L4119.17,1965.33 Z" id="Path" fill="#000000" fill-rule="nonzero"></path>
                <polygon id="Path" fill="#F00E1D" points="3337.36 1672.3 3311.3 1723.68 3305.12 1723.68 3284.11 1723.68 3294.61 1731.44 3303.89 1738.28 3135.19 2070.87 3053.22 2070.87 3108.71 1965.85 3024.63 1672.3 3108.84 1672.3 3161 1881.56 3257.39 1672.3"></polygon>
                <path d="M3836.15,1830.95 L3628.35,1830.95 C3625.66,1889.68 3655.97,1919.04 3719.18,1919.04 C3752.25,1919.04 3786.75,1907.04 3822.64,1883.11 L3825.4,1883.11 L3818.46,1950.38 C3777.25,1965.58 3739.16,1973.18 3704.26,1973.18 C3649.24,1973.18 3608.71,1960.05 3582.56,1933.97 C3556.41,1907.8 3545.88,1870.06 3550.96,1820.84 C3556.01,1771.96 3573.63,1733.44 3603.91,1705.37 C3634.1,1677.3 3673.29,1663.22 3721.31,1663.22 C3809.4,1663.22 3848.62,1710.03 3838.95,1803.65 L3836.14,1830.94 L3836.15,1830.95 Z M3762.96,1786.99 C3767.48,1736.55 3749.61,1711.33 3709.27,1711.33 C3666.44,1711.33 3640.94,1736.55 3632.89,1786.99 L3762.96,1786.99 Z" id="Shape" fill="#000000" fill-rule="nonzero"></path>
            </g>
        </g>
    </g>
</svg>